<svg xmlns="http://www.w3.org/2000/svg" viewBox="0 0 350 100" width="350" height="100">
  <defs>
    <linearGradient id="cubeGradLeft" x1="0%" y1="0%" x2="100%" y2="100%">
      <stop offset="0%" stop-color="#FF7A00" />
      <stop offset="100%" stop-color="#E05B00" />
    </linearGradient>
    <linearGradient id="cubeGradRight" x1="0%" y1="0%" x2="100%" y2="100%">
      <stop offset="0%" stop-color="#1A1A1A" />
      <stop offset="100%" stop-color="#000000" />
    </linearGradient>
    <linearGradient id="cubeGradTop" x1="0%" y1="0%" x2="100%" y2="100%">
      <stop offset="0%" stop-color="#FF9E42" />
      <stop offset="100%" stop-color="#FF7A00" />
    </linearGradient>
  </defs>
  
  <g transform="translate(10, 15) scale(0.7)">
    <polygon points="50,15 85,32.5 50,50 15,32.5" fill="url(#cubeGradTop)" />
    <polygon points="15,32.5 50,50 50,85 15,67.5" fill="url(#cubeGradLeft)" />
    <polygon points="50,50 85,32.5 85,67.5 50,85" fill="url(#cubeGradRight)" />
    <polyline points="15,32.5 50,50 50,85" fill="none" stroke="#FFFFFF" stroke-width="1.5" stroke-opacity="0.25"/>
    <line x1="50" y1="50" x2="85" y2="32.5" stroke="#FFFFFF" stroke-width="1.5" stroke-opacity="0.25"/>
    <line x1="15" y1="32.5" x2="50" y2="15" stroke="#FFFFFF" stroke-width="1.5" stroke-opacity="0.25"/>
    <line x1="50" y1="15" x2="85" y2="32.5" stroke="#FFFFFF" stroke-width="1.5" stroke-opacity="0.25"/>
    <line x1="15" y1="67.5" x2="50" y2="85" stroke="#FFFFFF" stroke-width="1.5" stroke-opacity="0.25"/>
    <line x1="50" y1="85" x2="85" y2="67.5" stroke="#FFFFFF" stroke-width="1.5" stroke-opacity="0.25"/>
  </g>
  
  <text x="85" y="47" font-family="'Inter', 'Space Grotesk', sans-serif" font-weight="800" font-size="22" fill="#1A1A1A" letter-spacing="1">INSTITUTE OF</text>
  <text x="85" y="75" font-family="'Inter', 'Space Grotesk', sans-serif" font-weight="800" font-size="28" fill="#FF7A00" letter-spacing="0">DIGITAL RISK</text>
</svg>
